<?xml version="1.0" encoding="utf-8"?>
<!-- Generator: Adobe Illustrator 28.0.0, SVG Export Plug-In . SVG Version: 6.00 Build 0)  -->
<svg version="1.1" id="Layer_2" xmlns="http://www.w3.org/2000/svg" xmlns:xlink="http://www.w3.org/1999/xlink" x="0px" y="0px"
	 viewBox="0 0 1000 1000" style="enable-background:new 0 0 1000 1000;" xml:space="preserve">
<style type="text/css">
	.st0{fill:none;stroke:#DFDFDF;stroke-width:6.9503;stroke-miterlimit:10;}
	.st1{opacity:0.4;stroke:#000000;stroke-width:6.9503;stroke-miterlimit:10;}
	.st2{fill:none;stroke:#DFDFDF;stroke-width:6.009;stroke-miterlimit:10;}
	.st3{fill:#DFDFDF;stroke:#DFDFDF;stroke-width:1.8821;stroke-miterlimit:10;}
	.st4{fill:#DFDFDF;}
	.st5{fill:none;stroke:#DFDFDF;stroke-width:12;stroke-linecap:round;stroke-linejoin:round;stroke-miterlimit:10;}
	.st6{fill:none;stroke:#DFDFDF;stroke-width:12;stroke-miterlimit:10;}
	.st7{fill:none;stroke:#DFDFDF;stroke-width:9.2941;stroke-linecap:round;stroke-linejoin:round;stroke-miterlimit:10;}
	.st8{fill:none;}
	.st9{opacity:0.4;}
	.st10{stroke:#000000;stroke-width:1.0327;stroke-linecap:round;stroke-linejoin:round;stroke-miterlimit:10;}
	.st11{fill:none;stroke:#DFDFDF;stroke-width:13;stroke-linecap:round;stroke-linejoin:round;stroke-miterlimit:10;}
	.st12{fill:none;stroke:#DFDFDF;stroke-width:7.2288;stroke-miterlimit:10;}
</style>
<g id="Layer_2_00000107546038030075425750000016575465236291660433_">
	<path class="st0" d="M412.87,893.99c-46.01,28.66-97.92,39.09-97.92,39.09"/>
	<path class="st0" d="M110.41,53.76l33.32-7.36c5.09-0.92,10.4,0.13,14.57,3.17c2.91,2.11,4.99,4.95,3.24,8.41
		c-4.01,7.88-0.58,15.61,9.01,33.63c4.55,8.56,5.01,13.02,4.23,15.35c-1.3,3.92-1.61,8.08-0.44,12.04
		c13.52,45.88,66.11,229.35,101.57,254.07c29.3,20.43,50.23,68.2,47.62,76.83c-2.33,7.69,1.44,21.15,2.28,23.98
		c0.11,0.38,0.21,0.76,0.3,1.14c3.66,15.64,75.84,323.82,77.29,334.4c1.27,9.29,6.95,21.92,9.47,27.41"/>
	<path class="st0" d="M110.41,53.76l-32.13,8.07c-4.96,1.45-9.24,4.76-11.62,9.35c-1.66,3.19-2.25,6.66,0.86,8.97
		c7.11,5.26,7.5,13.71,6.98,34.11c-0.24,9.69,1.34,13.89,3.07,15.63c2.91,2.92,5.06,6.51,5.78,10.57
		c8.42,47.08,43.38,234.72,22.7,272.68c-17.08,31.37-14.44,83.46-8.26,90.01c5.52,5.84,8.17,19.57,8.68,22.47
		c0.07,0.39,0.15,0.77,0.24,1.16c3.72,15.63,76.9,323.57,80.33,333.69c3.01,8.88,3.91,30.34,4.11,36.38
		c0.03,1.08,0.37,2.15,0.37,3.23c0.01,15.56,3.75,25.09,8.05,30.91c3.99,5.39,10.11,8.73,16.79,9.36
		c53.98,5.08,103.99-8.54,103.99-8.54"/>
	<path class="st1" d="M149.95,512.91c-3.54,15.53-3.48,34.13,1.05,53.32c10.61,44.97,41.61,76.13,69.24,69.61
		c12.02-2.84,21.41-12.34,27.33-25.86c11.34,9.46,23.99,13.76,36.01,10.92c27.63-6.52,41.43-48.25,30.82-93.22
		c-5.07-21.5-14.81-39.83-26.61-52.41c21.48-9.24,35.09-16.5,35.09-16.5l0,0l35.03,148.46c-112.71,87.44-220.52,52.03-220.52,52.03
		l-35.03-148.46C117.42,513.63,133.54,514.09,149.95,512.91z"/>
	<path class="st2" d="M247.57,609.98c0,0,18.04,15.26,36.01,10.92c27.6-6.66,38.58-47.58,27.97-92.55
		c-10.61-44.97-39.56-79.27-67.19-72.75c0,0-23.16,1.94-29.11,26.27"/>
	
		<ellipse transform="matrix(0.9733 -0.2296 0.2296 0.9733 -121.9371 60.975)" class="st2" cx="201.03" cy="554.43" rx="51.4" ry="83.65"/>
	
		<ellipse transform="matrix(0.9733 -0.2296 0.2296 0.9733 -119.0781 63.301)" class="st3" cx="212.45" cy="543.31" rx="18" ry="29.29"/>
	
		<ellipse transform="matrix(0.9733 -0.2296 0.2296 0.9733 -113.4747 78.7701)" class="st3" cx="281.72" cy="526.96" rx="18" ry="29.29"/>
	<g>
		<path class="st4" d="M301.78,440.34c0,0,0.29,0.64,0.32,0.65c0.31,0.59-0.32,1.31-0.95,1.1c-3.35-1-6.71-2-10.1-2.87
			c-16.79-4.51-34.02-8.25-51.43-8.71c-6.92-0.19-13.85,0.32-20.59,1.92c-0.65,0.17-1.22-0.58-0.89-1.16
			c5.44-9.95,16.73-15.25,27.49-17.11C267.21,410.7,291.44,420.41,301.78,440.34L301.78,440.34z"/>
	</g>
	<g>
		<path class="st4" d="M181.18,439.35c0,0,0.67,0.24,0.67,0.24c0.64,0.21,0.7,1.17,0.11,1.46c-3.08,1.65-6.19,3.35-9.22,5.13
			c-18.03,10.54-36.16,22.01-49.88,37.95c-2.27,2.64-4.29,5.45-6.12,8.41c-0.34,0.58-1.28,0.46-1.45-0.2
			c-3.2-10.94,1.06-22.72,7.38-31.69C135.56,442.85,159.68,432.53,181.18,439.35L181.18,439.35z"/>
	</g>
	<polyline class="st5" points="208.95,938.42 223.91,928.62 237.47,941.45 251,928.09 268.77,940.26 281.04,924.21 298.77,936.36 
		311.68,919.18 330.29,929.25 339.82,910.94 363.64,918.19 373.37,897.09 397.23,902.94 399.14,887.81 408.28,893.99 	"/>
	<path class="st6" d="M67.54,80.16c52.86,4.08,93.99-22.17,93.99-22.17"/>
	<path class="st6" d="M107.6,37.86l-37.95,9.46c-5.87,1.67-22.03,7.49-24.97,12.38c-2.04,3.39-2.84,7.06,0.73,9.38
		c8.18,5.29,9.68,28.11,8.43,49.51c-0.59,10.17,1.14,14.52,3.12,16.29c3.32,2.97,5.73,6.67,6.45,10.9
		c8.41,49.09,46.52,224.54,21.06,264.98c-21.03,33.41-12.78,91.82-5.73,98.49c6.29,5.94,8.97,20.26,9.48,23.28
		c0.06,0.4,0.15,0.8,0.24,1.21c3.87,16.27,80.1,336.72,83.8,347.21c3.24,9.21,3.64,31.68,3.68,38c0,1.13,0.37,2.23,0.34,3.37
		c-0.48,16.31,3.62,26.18,8.47,32.15c4.51,5.53,11.59,8.83,19.4,9.29c63.18,3.63,122.29-12.2,122.29-12.2"/>
	<path class="st6" d="M440.01,902.51c-54.89,31.49-120.32,50.62-120.32,50.62"/>
	<path class="st6" d="M107.07,37.98l38.18-8.5c6-1.13,23.06-3.14,27.87-0.09c3.34,2.12,5.7,5.04,3.54,8.71
		c-4.95,8.39,3.9,29.47,14.59,48.06c5.07,8.83,5.47,13.5,4.49,15.97c-1.64,4.14-2.14,8.52-0.9,12.64
		c14.42,47.67,58.75,221.65,99.6,246.45c33.75,20.49,52.47,76.43,49.14,85.55c-2.97,8.13,1.03,22.13,1.92,25.06
		c0.12,0.39,0.23,0.78,0.32,1.19c3.81,16.28,84.22,351.17,85.6,362.21"/>
</g>
<g>
	
		<ellipse transform="matrix(0.1728 -0.985 0.985 0.1728 -436.8222 1247.4932)" class="st7" cx="524.28" cy="883.81" rx="36.32" ry="190.31"/>
	
		<ellipse transform="matrix(0.1728 -0.985 0.985 0.1728 -436.8222 1247.4932)" class="st4" cx="524.28" cy="883.81" rx="11.93" ry="62.5"/>
	<g>
		<path class="st4" d="M825.63,187.97c20.62-17.35,40.74-33.4,62.08-49.99c5.49-4.27,10.81-8.78,16.18-13.2
			c10.8-8.89,22.84-15.89,35.4-22.08c6.34-3.05,12.83-5.89,19.83-8c0.44-0.13,0.91,0.12,1.04,0.56c0.08,0.27,0.02,0.54-0.13,0.74
			c-4.37,5.86-9.25,11-14.27,15.92c-5.04,4.89-10.3,9.51-15.71,13.87c-10.73,8.93-23.27,15.21-35.02,22.62
			c-8.78,5.56-26.58,16.59-35.47,21.96c-11.93,7.18-20.93,11.94-33.02,18.89c-0.38,0.22-0.88,0.09-1.09-0.3
			C825.25,188.64,825.33,188.21,825.63,187.97L825.63,187.97z"/>
	</g>
	<g>
		
			<ellipse transform="matrix(0.1728 -0.985 0.985 0.1728 452.1776 967.3779)" class="st8" cx="802.01" cy="214.49" rx="36.86" ry="36.86"/>
		<path class="st4" d="M765.33,208.05c5.02-26.36,34.24-40.95,57.71-26.62c30.33,18.59,22.4,64.99-12.11,73.07
			C782.41,260.63,760.02,235.62,765.33,208.05L765.33,208.05z M766.11,208.19c-4.58,29.76,30.82,49.42,54.81,33.25
			c20.19-13.17,19.5-42.9-0.37-56.09C799.85,171.51,770.16,182.91,766.11,208.19L766.11,208.19z"/>
	</g>
	<g class="st9">
		<path class="st10" d="M524.59,293.01c9.6-54.74,44.66-94.34,78.3-88.44c14.63,2.57,26.58,13.32,34.62,29.14
			c12.95-12.15,27.85-18.19,42.48-15.62c33.64,5.9,53.12,55.06,43.52,109.81c-1.49,8.48-3.59,16.59-6.19,24.23l125.82-118.97
			l-409.25-71.79l88.26,160.01C522.1,312.23,522.88,302.71,524.59,293.01z"/>
		<path class="st10" d="M645.2,416.34c-14.63-2.57-26.58-13.32-34.62-29.14c-12.95,12.15-27.85,18.19-42.48,15.62
			c-0.39-0.07-0.78-0.15-1.17-0.23l23.07,41.83l25.05,4.39l33.85-32.01C647.67,416.7,646.44,416.55,645.2,416.34z"/>
	</g>
	
		<ellipse transform="matrix(0.1728 -0.985 0.985 0.1728 236.0414 890.3765)" class="st4" cx="648.1" cy="304.66" rx="35.24" ry="21.66"/>
	
		<ellipse transform="matrix(0.1728 -0.985 0.985 0.1728 180.8458 795.0639)" class="st4" cx="563.76" cy="289.87" rx="35.24" ry="21.66"/>
	<g>
		<path class="st4" d="M540.93,171.89c9.53-21.32,34.1-32.86,56.74-30.57c11.28,1.29,23.33,6.11,29.57,16.11
			c0.38,0.58-0.16,1.4-0.85,1.26c-7.1-1.26-14.32-1.37-21.5-0.75c-18.05,1.53-35.71,6.45-52.88,12.14
			c-3.47,1.11-6.9,2.35-10.32,3.59c-0.64,0.25-1.35-0.46-1.06-1.09C540.65,172.57,540.93,171.89,540.93,171.89L540.93,171.89z"/>
	</g>
	<g>
		<path class="st4" d="M666.12,162.97c21.91-8.38,47.58,0.88,62.04,18.59c7.1,8.93,12.24,20.91,9.57,32.46
			c-0.14,0.69-1.11,0.88-1.5,0.29c-2.07-2.96-4.35-5.76-6.86-8.36c-15.21-15.72-34.72-26.54-54.08-36.39
			c-3.25-1.67-6.58-3.24-9.88-4.77c-0.63-0.27-0.63-1.27,0.03-1.53C665.45,163.26,666.12,162.97,666.12,162.97L666.12,162.97z"/>
	</g>
	<polyline class="st11" points="580.76,480.91 559.39,439.04 342.3,29.53 974.05,137.1 637.68,453.27 609.16,481.93 	"/>
	<path class="st12" d="M569.13,402.99c-33.64-5.9-53.12-55.06-43.52-109.81s44.66-94.34,78.3-88.44"/>
	
		<ellipse transform="matrix(0.1728 -0.985 0.985 0.1728 236.3339 916.1938)" class="st12" cx="663.62" cy="317.4" rx="100.63" ry="61.84"/>
	<path class="st12" d="M610.58,387.19c0,0-18.75,22.56-43.65,15.39"/>
	<path class="st12" d="M637.51,233.71c0,0-9.85-25.3-34.62-29.14"/>
	<path class="st12" d="M719.29,349.42l213.66-200.58l-559.5-98.15l149.78,274.3c1.07,38.89,17.32,70.16,42.12,77.14l22.92,41.98
		l-76.74,437.47l25.04,4.39l76.66-436.98l34.36-32.26C676.24,420.71,705.66,392.04,719.29,349.42z"/>
</g>
</svg>
