<?xml version="1.0" encoding="utf-8"?>
<!-- Generator: Adobe Illustrator 28.0.0, SVG Export Plug-In . SVG Version: 6.00 Build 0)  -->
<svg version="1.1" id="Layer_1" xmlns="http://www.w3.org/2000/svg" xmlns:xlink="http://www.w3.org/1999/xlink" x="0px" y="0px"
	 viewBox="0 0 1000 1000" style="enable-background:new 0 0 1000 1000;" xml:space="preserve">
<style type="text/css">
	.st0{display:none;}
	.st1{display:inline;}
	.st2{fill:none;stroke:#000000;stroke-width:9;stroke-linecap:round;stroke-linejoin:round;stroke-miterlimit:10;}
	.st3{fill:#FFFFFF;}
	.st4{stroke:#000000;stroke-linecap:round;stroke-linejoin:round;stroke-miterlimit:10;}
	.st5{fill:#FFFFFF;stroke:#000000;stroke-width:7;stroke-miterlimit:10;}
	.st6{stroke:#000000;stroke-width:2.1925;stroke-miterlimit:10;}
	.st7{fill:none;stroke:#000000;stroke-width:6.5793;stroke-miterlimit:10;}
</style>
<g class="st0">
	<path class="st1" d="M528.03,893.03c-7.36-169.64-9.89-339.53-5.88-509.29l2.01,4.84c-64.2-68.27-134.19-141.1-201.13-206.08
		c-10.62-10.36-36.88-35.75-47.77-46.21c-1.76-1.7-1.81-4.49-0.11-6.25c0.9-0.92,2.06-1.37,3.27-1.36l125.14-2.87
		c96.37-1.84,216.24-2.68,312.85-3.14c20.9,0.02,41.8-0.02,62.7,0.12c5.7,0.04,10.29,4.69,10.25,10.39
		c-0.02,2.83-1.2,5.41-3.06,7.26l-19.57,19.37c-19.22,18.81-39.86,39.24-59.01,57.83c-78.97,76.87-158.4,153.25-239.62,227.75
		c-0.4,0.36-1.01,0.33-1.38-0.06c-0.34-0.37-0.33-0.95,0-1.31c37.21-40.68,75.02-80.75,113.04-120.65
		c63.21-66.36,127.43-132.4,191.92-197.56l7.31,17.66c-161.38,0.42-338.93-1.73-500.57-5.89l3.15-7.61l30.75,31.9
		c30.67,31.57,62.27,63.54,93.56,94.39c36.28,36.14,90.31,86.81,127.97,122.62c1.28,1.21,1.95,2.83,2,4.46
		c3.5,127.44,1.71,254.92-1.24,382.35c-1.1,42.44-2.5,84.88-4.63,127.32c-0.03,0.54-0.48,0.95-1.02,0.92
		C528.45,893.93,528.06,893.52,528.03,893.03L528.03,893.03z"/>
</g>
<ellipse class="st2" cx="500" cy="910.82" rx="184.29" ry="35.17"/>
<polyline class="st2" points="487.46,910.82 487.46,480.73 216.74,141.44 766.81,141.44 512.08,481.21 512.08,910.82 "/>
<ellipse cx="500" cy="910.82" rx="60.52" ry="11.55"/>
<g>
	<path d="M668.62,199.52c16.76-20,35.64-41.47,53.22-60.87c4.52-4.99,8.84-10.18,13.22-15.3c8.81-10.29,19.13-18.98,30.07-26.98
		c5.54-3.97,11.25-7.76,17.57-10.95c0.4-0.2,0.89-0.04,1.09,0.36c0.12,0.24,0.11,0.51,0,0.73c-3.19,6.32-6.98,12.04-10.95,17.57
		c-3.99,5.51-8.23,10.79-12.66,15.86c-8.74,10.31-19.65,18.4-29.62,27.43c-7.44,6.77-22.58,20.27-30.16,26.88
		c-10.18,8.84-20.34,17.69-30.71,26.34c-0.33,0.27-0.82,0.23-1.09-0.1C668.37,200.22,668.38,199.8,668.62,199.52L668.62,199.52z"/>
</g>
<g>
	<circle class="st3" cx="652.91" cy="225.96" r="35.69"/>
	<path d="M616.84,225.96c0.38-25.98,25.81-44.79,50.59-35.05c32.04,12.66,32.24,58.24,0.68,71.72
		C641.93,273.25,616.39,253.14,616.84,225.96L616.84,225.96z M617.61,225.96c0.61,29.15,37.66,41.98,57.84,22.54
		c17.05-15.94,11.42-44.18-9.74-53.44C643.65,185.33,617.24,201.17,617.61,225.96L617.61,225.96z"/>
</g>
<polygon class="st4" points="292.9,236.89 695.25,236.89 513.8,480.73 489.17,480.73 "/>
<ellipse class="st5" cx="461.32" cy="347.27" rx="59.88" ry="97.45"/>
<ellipse class="st5" cx="537.12" cy="347.27" rx="59.88" ry="97.45"/>
<ellipse class="st6" cx="521.2" cy="337.72" rx="20.97" ry="34.12"/>
<ellipse class="st6" cx="438.28" cy="337.72" rx="20.97" ry="34.12"/>
<g>
	<path d="M396.76,229.02c5.52-21.93,27.03-37.05,49-38.65c10.97-0.66,23.27,1.92,30.9,10.42c0.46,0.49,0.08,1.36-0.6,1.34
		c-6.98-0.01-13.89,1.09-20.63,2.88c-16.96,4.48-32.98,12.13-48.4,20.43c-3.12,1.64-6.19,3.4-9.24,5.15
		c-0.57,0.35-1.36-0.21-1.19-0.86C396.61,229.71,396.76,229.02,396.76,229.02L396.76,229.02z"/>
</g>
<g>
	<path d="M514.68,199.56c19.5-11.66,45.53-7.12,62.28,7.35c8.27,7.33,15.17,17.9,14.56,29.36c-0.02,0.68-0.91,1.02-1.38,0.53
		c-2.47-2.48-5.11-4.77-7.94-6.83c-17.14-12.45-37.56-19.5-57.67-25.66c-3.38-1.05-6.82-1.99-10.22-2.9
		c-0.65-0.15-0.81-1.11-0.23-1.46C514.09,199.95,514.68,199.56,514.68,199.56L514.68,199.56z"/>
</g>
<path class="st7" d="M487.46,582.7c0,0-108.58,98.87-164.03-39.23c0,0,24.26-38.45,9.7-56.5s-32.46,2.06-23.1,18.57
	c12.02,21.19,0.92,1.83,0.92,1.83s-27.38,29.43,12.48,36.1"/>
<polyline class="st2" points="486.46,517.09 459.07,480.73 183.49,126.47 804.05,123.36 536.12,481.21 513.72,513.31 "/>
</svg>
