<?xml version="1.0" encoding="utf-8"?>
<!-- Generator: Adobe Illustrator 28.0.0, SVG Export Plug-In . SVG Version: 6.00 Build 0)  -->
<svg version="1.1" xmlns="http://www.w3.org/2000/svg" xmlns:xlink="http://www.w3.org/1999/xlink" x="0px" y="0px"
	 viewBox="0 0 1000 1000" style="enable-background:new 0 0 1000 1000;" xml:space="preserve">
<style type="text/css">
	.st0{display:none;}
	.st1{display:inline;fill:#2F3061;stroke:#DFDFDF;stroke-width:10.7428;stroke-miterlimit:10.0001;}
	.st2{display:inline;}
	.st3{fill:#DFDFDF;}
	.st4{display:inline;opacity:0.4;}
	
		.st5{display:inline;fill:none;stroke:#DFDFDF;stroke-width:10.7427;stroke-linecap:round;stroke-linejoin:round;stroke-miterlimit:10;}
	.st6{fill:none;stroke:#DFDFDF;stroke-width:9.1036;stroke-miterlimit:10;}
	.st7{fill:none;stroke:#DFDFDF;stroke-width:10.641;stroke-miterlimit:10;}
	.st8{opacity:0.56;}
	.st9{fill:none;stroke:#DFDFDF;stroke-width:7.9403;stroke-miterlimit:10;}
	.st10{fill:none;stroke:#DFDFDF;stroke-width:9.2813;stroke-miterlimit:10;}
	.st11{opacity:0.36;}
	.st12{fill:none;stroke:#DFDFDF;stroke-width:10.1875;stroke-linecap:round;stroke-linejoin:round;stroke-miterlimit:10;}
	.st13{fill:none;}
	.st14{opacity:0.4;}
	.st15{stroke:#000000;stroke-width:1.1319;stroke-linecap:round;stroke-linejoin:round;stroke-miterlimit:10;}
	.st16{fill:none;stroke:#DFDFDF;stroke-width:14;stroke-linecap:round;stroke-linejoin:round;stroke-miterlimit:10;}
	.st17{fill:none;stroke:#DFDFDF;stroke-width:7.9236;stroke-miterlimit:10;}
</style>
<g id="Layer_2">
</g>
<g id="Layer_1">
	<g class="st0">
		
			<ellipse transform="matrix(0.9972 -0.0749 0.0749 0.9972 -68.5977 38.1103)" class="st1" cx="473.81" cy="933.63" rx="209.1" ry="39.9"/>
		<g class="st2">
			<path class="st3" d="M221.65,144.21c-22.93-17.72-49.29-38.56-71.85-56.85c-5.93-4.8-11.99-9.45-18.01-14.15
				c-12.06-9.42-23.11-19.97-33.71-31c-5.27-5.57-10.45-11.25-15.22-17.39c-0.19-0.24-0.14-0.58,0.1-0.77
				c0.18-0.14,0.42-0.15,0.6-0.05c19.9,11.63,38.29,25.52,55.16,41.15c9.54,9.19,23.64,22.11,33.56,31.17
				c12.11,11.2,29.83,27.87,41.78,39.15l8.28,7.92c0.21,0.21,0.22,0.55,0.02,0.76C222.17,144.36,221.86,144.37,221.65,144.21
				L221.65,144.21z"/>
		</g>
		<g class="st2">
			<path class="st3" d="M282.44,168.73c-1.45-27.86-33.02-43.26-56.69-30.36c-8.54,4.61-15.12,12.68-17.89,21.93
				c-7.52,24.48,12.52,47.61,37.36,46.45C265.54,206.09,283.63,189.89,282.44,168.73L282.44,168.73z M283.51,168.65
				c1.69,16.65-5.89,34.4-20.65,43.21c-7.58,4.68-16.97,6.47-25.84,5.56c-21.51-2.24-38.12-20.98-39.1-42.34
				c-1.14-17.49,9.06-35,25-42.29C250.61,119.7,280.63,139,283.51,168.65L283.51,168.65z"/>
		</g>
		<g class="st4">
			<polygon points="650.86,153.48 195.61,187.69 421.65,448.15 449.51,446.06 			"/>
		</g>
		<polyline class="st5" points="488.02,932.55 451.45,445.91 728.91,39.01 106.54,85.78 423.63,448.56 460.16,934.64 		"/>
		
			<ellipse transform="matrix(0.9972 -0.0749 0.0749 0.9972 -68.5977 38.1103)" class="st1" cx="473.81" cy="933.63" rx="68.67" ry="13.1"/>
		
			<ellipse transform="matrix(0.9972 -0.0749 0.0749 0.9972 -20.6043 36.0006)" class="st1" cx="469.68" cy="292.71" rx="67.94" ry="110.57"/>
		
			<ellipse transform="matrix(0.9972 -0.0749 0.0749 0.9972 -21.3281 29.5953)" class="st1" cx="383.92" cy="299.15" rx="67.94" ry="110.57"/>
		<g class="st2">
			<path class="st3" d="M402.91,320.25c-10.62,0-18.99-16.49-20.15-31.9c-1.35-18.02,5.91-33.88,15.87-34.63
				c0.24-0.02,0.48-0.03,0.71-0.03c10.62,0,18.99,16.49,20.15,31.9c1.35,18.02-5.91,33.88-15.87,34.63
				C403.38,320.24,403.14,320.25,402.91,320.25z"/>
			<path class="st3" d="M399.34,259.07c5.21,0,13.56,10.49,14.79,26.93c0.62,8.24-0.74,16.29-3.73,22.09
				c-2.09,4.06-4.78,6.6-7.18,6.78c-0.1,0.01-0.21,0.01-0.31,0.01c-5.21,0-13.56-10.49-14.79-26.93
				c-0.62-8.24,0.74-16.29,3.73-22.09c2.09-4.06,4.78-6.6,7.18-6.78C399.13,259.07,399.23,259.07,399.34,259.07 M399.34,248.32
				c-0.37,0-0.74,0.01-1.12,0.04c-13.1,0.98-22.42,19.07-20.82,40.39c1.56,20.72,12.85,36.87,25.51,36.87
				c0.37,0,0.74-0.01,1.12-0.04c13.1-0.98,22.42-19.07,20.82-40.39C423.29,264.47,411.99,248.32,399.34,248.32L399.34,248.32z"/>
		</g>
		<g class="st2">
			<path class="st3" d="M496.72,313.2c-10.62,0-18.99-16.49-20.15-31.9c-0.7-9.34,0.83-18.2,4.31-24.96
				c1.76-3.42,5.61-9.23,11.55-9.67c0.24-0.02,0.48-0.03,0.71-0.03c10.62,0,18.99,16.49,20.15,31.9
				c1.35,18.02-5.91,33.88-15.87,34.63C497.2,313.19,496.96,313.2,496.72,313.2z"/>
			<path class="st3" d="M493.15,252.02c5.21,0,13.56,10.49,14.79,26.93c0.62,8.24-0.74,16.29-3.73,22.09
				c-2.09,4.06-4.78,6.6-7.18,6.78c-0.1,0.01-0.21,0.01-0.31,0.01c-5.21,0-13.56-10.49-14.79-26.93
				c-0.62-8.24,0.74-16.29,3.73-22.09c2.09-4.06,4.78-6.6,7.18-6.78C492.94,252.02,493.05,252.02,493.15,252.02 M493.15,241.27
				c-0.37,0-0.74,0.01-1.12,0.04c-13.1,0.98-22.42,19.07-20.82,40.39c1.56,20.72,12.85,36.87,25.51,36.87
				c0.37,0,0.74-0.01,1.12-0.04c13.1-0.98,22.42-19.07,20.82-40.39C517.1,257.43,505.81,241.27,493.15,241.27L493.15,241.27z"/>
		</g>
		<g class="st2">
			<path class="st3" d="M531.89,154.8c-16.74-1.11-31.52-5.6-46.92-10.44c-10.52-3.42-22.13-7.62-32.61-11.22l-11.77-3.94
				l-0.23-0.08c-0.48-0.14-0.44-0.93,0.08-0.99c23.38-3.42,49.19,5.5,70.41,14.79c7.39,3.26,14.6,6.86,21.58,10.94
				c0.44,0.24,0.24,1-0.28,0.95C532.13,154.81,531.89,154.8,531.89,154.8L531.89,154.8z"/>
		</g>
		<g class="st2">
			<path class="st3" d="M397.17,131.65c-12.7,11.08-26.4,18.38-40.78,25.88c-9.63,4.89-21.47,10.49-31.14,15.22l-11.15,5.59
				l-0.22,0.11c-0.44,0.24-0.97-0.34-0.64-0.75c14.14-19.01,38.89-31.06,60.53-39.52c7.57-2.93,15.25-5.5,23.11-7.56
				c0.48-0.14,0.88,0.54,0.47,0.87C397.36,131.48,397.17,131.65,397.17,131.65L397.17,131.65z"/>
		</g>
		<polyline class="st5" points="455.68,486.97 483.57,443.5 765.26,19.25 62.86,68.48 396.44,450.6 424.51,485.01 		"/>
	</g>
	<g>
		<path class="st6" d="M915.22,483.73l-20.27-150.27l-28.61-105.3c0,0-0.7-4.75,0.89-6.17s-2.69-4.8-2.69-4.8s-2.96,0.18-5.5-1.38
			c-0.65-0.4-1.28-0.91-1.82-1.57c-2.66-3.23-15.35-26.67-15.35-26.67s-8.36-10.38-21.39-11.78c0,0-7.48-1.33-7.99-10.48l1.27-1.14
			l-12.03-31.92c0,0-3.63-5.34-11.61-4.16s-27.56,5.51-33.32,9.05c0,0-9.66,3.02-9.73,10.75s7.08,34.06,7.08,34.06
			s3.42,6.78,1.11,9.19s-11.99,15.52-11.64,16.8c0.35,1.29-5.38,12.93-1.22,33.35c0,0,0.73,3.91-0.79,7.41
			c-0.82,1.87-2.28,3.63-4.84,4.6c0,0-2.01,5.69,2.79,7.35s6.1,20.28,6.1,20.28s1.27,1.04,1.3,2.61s24.31,85.12,24.31,85.12
			l59.63,137.99C830.9,506.64,882.26,497.03,915.22,483.73z"/>
		<path class="st6" d="M744.08,248.15c0,0,29.35,21.32,114.96-32.35"/>
		<path class="st6" d="M811.83,163.51c0,0-25.15,20.59-57.05,19.85"/>
	</g>
	<path class="st7" d="M463.19,564.86c0,0,233.57-64.25,274.76-132.99c7.18-11.98,11.04-24.29,10.22-36.69
		c-3.43-51.48,18.53-46.73,35.88-35.52c11.24,7.27,11.39,23.73,0.38,31.34c-11.84,8.19-26.64,16.73-37.02,16.82"/>
	<g class="st8">
		<g>
			<path class="st9" d="M850.02,672.87l39.87-126.1l16.57-93.72c0,0,1.22-4.01,3-4.54s-0.34-4.79-0.34-4.79s-2.4-0.96-3.83-3.13
				c-0.37-0.56-0.67-1.2-0.85-1.92c-0.9-3.54-2.2-26.75-2.2-26.75s-2.73-11.3-12.5-17.25c0,0-5.41-3.83-2.41-11.24l1.43-0.42
				l2.37-29.66c0,0-0.88-5.56-7.61-7.6c-6.74-2.04-23.8-5.9-29.66-5.24c0,0-8.74-1.21-11.67,4.86s-7.07,29.5-7.07,29.5
				s0.18,6.62-2.54,7.66s-15.23,7.78-15.43,8.93s-9.05,8.2-13.36,25.86c0,0-0.88,3.36-3.38,5.55c-1.34,1.18-3.14,2.02-5.53,1.83
				c0,0-3.7,3.74-0.53,6.83s-2.72,18.27-2.72,18.27s0.62,1.29,0.06,2.54s-12.46,76.2-12.46,76.2l-4.24,131.05
				C774.97,659.6,819.07,671.12,850.02,672.87z"/>
			<path class="st9" d="M802.55,423.37c0,0,15.23,27.74,102.73,17.21"/>
			<path class="st9" d="M887.47,381.78c0,0-27.5,6.9-52.39-5.54"/>
		</g>
		<path class="st10" d="M463.19,568.86c0,0,208.18,36.12,266.24-2.8c10.12-6.79,17.75-15.06,21.7-25.15
			c16.43-41.9,31.99-29.98,41.51-14.69c6.17,9.91,0.16,22.95-11.35,24.87c-12.39,2.06-27.24,3.3-35.47-0.49"/>
	</g>
	<g class="st11">
		<g>
			<path class="st9" d="M798.68,797.31l77.01-107.52l44.82-83.96c0,0,2.4-3.43,4.26-3.39c1.86,0.05,1.17-4.66,1.17-4.66
				s-1.98-1.66-2.67-4.17c-0.18-0.64-0.27-1.35-0.22-2.09c0.25-3.64,6.21-26.11,6.21-26.11s0.9-11.59-6.53-20.27
				c0,0-3.95-5.32,1.2-11.43l1.49,0.04l11.45-27.46c0,0,0.89-5.56-4.88-9.58c-5.77-4.03-20.79-12.99-26.57-14.18
				c0,0-7.94-3.86-12.61,1s-15.88,25.85-15.88,25.85s-1.88,6.35-4.79,6.5s-16.89,2.68-17.44,3.7s-11.15,4.99-20.72,20.44
				c0,0-1.88,2.92-4.94,4.23c-1.64,0.7-3.61,0.94-5.82,0.03c0,0-4.68,2.41-2.63,6.33s-8.26,16.53-8.26,16.53s0.19,1.42-0.73,2.44
				s-35.48,68.58-35.48,68.58l-44.68,123.27C731.45,761.42,769.8,786.04,798.68,797.31z"/>
			<path class="st9" d="M830.94,545.39c0,0,5.88,31.09,92.33,48.23"/>
			<path class="st9" d="M924.58,532.18c0,0-28.28-1.97-48.09-21.52"/>
		</g>
		<path class="st10" d="M463.19,578.44c0,0,186.71,98.91,253.98,79.91c11.73-3.31,21.54-8.82,28.43-17.18
			c28.61-34.74,39.71-18.58,44.02-1.09c2.79,11.33-6.96,21.87-18.5,20.13c-12.41-1.88-26.92-5.31-33.57-11.46"/>
	</g>
	<g class="st0">
		<path class="st2" d="M537.7,868.16c-7.91-182.34-10.63-364.95-6.32-547.42l2.16,5.2c-69.01-73.38-144.24-151.66-216.19-221.51
			c-11.42-11.14-39.64-38.43-51.35-49.67c-1.89-1.83-1.95-4.83-0.12-6.72c0.97-0.99,2.21-1.47,3.51-1.46l134.51-3.08
			c103.58-1.98,232.43-2.88,336.27-3.38c22.46,0.02,44.93-0.02,67.39,0.13c6.13,0.04,11.06,5.04,11.02,11.17
			c-0.02,3.04-1.29,5.81-3.29,7.8l-21.04,20.82c-20.66,20.22-42.84,42.18-63.43,62.16c-84.88,82.62-170.26,164.72-257.56,244.8
			c-0.43,0.39-1.09,0.35-1.48-0.06c-0.37-0.4-0.35-1.02,0-1.41c40-43.73,80.64-86.79,121.5-129.68
			c67.94-71.33,136.97-142.31,206.29-212.35l7.86,18.98c-173.46,0.45-364.3-1.86-538.04-6.33l3.39-8.18l33.05,34.29
			c32.97,33.93,66.93,68.3,100.56,101.46c39,38.85,97.07,93.31,137.55,131.8c1.38,1.3,2.1,3.04,2.15,4.79
			c3.76,136.98,1.84,274-1.33,410.97c-1.18,45.62-2.69,91.23-4.98,136.85c-0.03,0.58-0.52,1.02-1.1,0.99
			C538.15,869.13,537.73,868.69,537.7,868.16L537.7,868.16z"/>
	</g>
	<g>
		
			<ellipse transform="matrix(0.997 -0.078 0.078 0.997 -71.3313 39.8548)" class="st12" cx="474.77" cy="933.5" rx="208.61" ry="39.81"/>
		
			<ellipse transform="matrix(0.997 -0.078 0.078 0.997 -71.3313 39.8548)" class="st3" cx="474.77" cy="933.5" rx="68.51" ry="13.07"/>
		<g>
			<path class="st3" d="M218.79,142.73c0.3,0.29,0.34,0.77,0.11,1.09c-0.28,0.4-0.83,0.48-1.22,0.21
				c-12.47-8.85-21.79-14.99-34.05-24.06c-9.14-6.79-27.41-20.69-36.41-27.67c-12.05-9.31-25.07-17.48-35.85-28.34
				c-5.45-5.33-10.7-10.91-15.69-16.78c-4.97-5.89-9.75-12.01-13.91-18.86c-0.14-0.24-0.18-0.54-0.06-0.82
				c0.19-0.47,0.73-0.69,1.2-0.5c7.41,3.04,14.19,6.82,20.79,10.81c13.05,8.06,25.46,16.96,36.31,27.79
				c5.39,5.39,10.73,10.87,16.27,16.1C177.84,102.03,198.11,121.64,218.79,142.73L218.79,142.73z"/>
		</g>
		<g>
			
				<ellipse transform="matrix(0.0827 -0.9966 0.9966 0.0827 48.2379 400.6744)" class="st13" cx="241.78" cy="174.13" rx="40.4" ry="40.4"/>
			<path class="st3" d="M282.48,170.95c2.91,30.63-24.14,55.58-54.62,45.91c-36.8-12.43-40.6-63.88-5.56-81
				C249.4,122.68,279.76,141.66,282.48,170.95L282.48,170.95z M281.61,171.02c-1.77-28.01-32.97-43.55-57.01-30.63
				c-23.06,12.32-26.92,44.68-6.28,61.17C242.82,221.72,283.5,203.97,281.61,171.02L281.61,171.02z"/>
		</g>
		<g class="st14">
			<path class="st15" d="M536.27,288.84c-4.75-60.74-38.85-107.61-76.17-104.69c-16.23,1.27-30.39,11.75-40.83,28.18
				c-12.86-14.61-28.48-22.76-44.71-21.49c-37.32,2.92-63.72,54.52-58.97,115.26c0.74,9.4,2.18,18.48,4.22,27.08L194.96,190.2
				l454.05-35.51L535.96,320.05C536.97,310.08,537.11,299.6,536.27,288.84z"/>
			<path class="st15" d="M391.75,410.78c16.23-1.27,30.39-11.75,40.83-28.18c12.86,14.61,28.48,22.76,44.71,21.49
				c0.44-0.03,0.87-0.08,1.3-0.13l-29.55,43.22l-27.79,2.17l-33.59-38.47C389.02,410.92,390.38,410.89,391.75,410.78z"/>
		</g>
		
			<ellipse transform="matrix(0.997 -0.078 0.078 0.997 -21.2835 32.0841)" class="st3" cx="400.28" cy="288.63" rx="23.74" ry="38.62"/>
		
			<ellipse transform="matrix(0.997 -0.078 0.078 0.997 -20.4283 39.357)" class="st3" cx="493.85" cy="281.31" rx="23.74" ry="38.62"/>
		<g>
			<path class="st3" d="M531.11,154.98c0,0,0.23,0.77,0.24,0.79c0.25,0.72-0.59,1.42-1.27,1.08c-3.6-1.71-7.22-3.42-10.88-5
				c-18.13-8.01-36.89-15.23-56.42-18.78c-7.76-1.43-15.66-2.06-23.54-1.43c-0.77,0.08-1.27-0.87-0.8-1.46
				c7.86-10.27,21.51-14.26,33.95-14.49C497.34,115.56,522.95,130.72,531.11,154.98L531.11,154.98z"/>
		</g>
		<g>
			<path class="st3" d="M395.44,132.14c0,0,0.7,0.39,0.71,0.39c0.69,0.34,0.59,1.44-0.13,1.67c-3.76,1.33-7.56,2.69-11.28,4.17
				c-22.15,8.73-44.57,18.48-62.82,34.05c-3.01,2.57-5.79,5.39-8.36,8.41c-0.49,0.59-1.52,0.29-1.6-0.48
				c-1.7-12.88,5.15-25.42,13.84-34.42C343.43,128.12,372.41,120.7,395.44,132.14L395.44,132.14z"/>
		</g>
		<polyline class="st16" points="424.21,486.12 396.1,451.88 62.16,71.69 762.74,20.43 483.01,444.53 455.31,487.98 		"/>
		<path class="st17" d="M458.95,184.24c37.32-2.92,71.42,43.95,76.17,104.69s-21.65,112.34-58.97,115.26"/>
		
			<ellipse transform="matrix(0.997 -0.078 0.078 0.997 -22.2958 30.6977)" class="st17" cx="382.01" cy="300.9" rx="67.78" ry="110.31"/>
		<path class="st17" d="M432.58,382.61c0,0,18.1,26.58,46.01,21.36"/>
		<path class="st17" d="M419.26,212.33c0,0,13.4-26.57,40.83-28.18"/>
		<path class="st17" d="M317.92,330.02L105.78,88.8l620.75-48.54L534.41,323.88c-5.24,42.32-26.24,74.74-54.03,79.76l-29.41,43.41
			l37.95,485.36l-27.78,2.17l-37.91-484.81l-34.12-38.79C357.43,412.31,328.33,377.95,317.92,330.02z"/>
	</g>
</g>
</svg>
