<?xml version="1.0" encoding="utf-8"?>
<!-- Generator: Adobe Illustrator 28.0.0, SVG Export Plug-In . SVG Version: 6.00 Build 0)  -->
<svg version="1.1" xmlns="http://www.w3.org/2000/svg" xmlns:xlink="http://www.w3.org/1999/xlink" x="0px" y="0px"
	 viewBox="0 0 1000 1000" style="enable-background:new 0 0 1000 1000;" xml:space="preserve">
<style type="text/css">
	.st0{fill:none;stroke:#DFDFDF;stroke-width:15.1966;stroke-miterlimit:10;}
	.st1{fill:#DFDFDF;}
	.st2{fill:none;stroke:#DFDFDF;stroke-width:7.2065;stroke-miterlimit:10;}
	.st3{opacity:0.4;stroke:#000000;stroke-width:7.2065;stroke-miterlimit:10;}
	.st4{fill:none;stroke:#DFDFDF;stroke-width:6.2306;stroke-miterlimit:10;}
	.st5{fill:#DFDFDF;stroke:#DFDFDF;stroke-width:1.9515;stroke-miterlimit:10;}
	.st6{fill:none;stroke:#DFDFDF;stroke-width:12;stroke-miterlimit:10;}
</style>
<g id="Layer_2">
</g>
<g id="Layer_1">
	<g>
		<path class="st0" d="M689.85,437.32c0,0-43.75,138.66-39.76,176.42s-22.78,118.58-48.35,130.51
			c-25.57,11.92-12.59,106.66-12.59,116.6s1.12,17.22-47.7,29.15s-11.26,48.65,60.29,36.44s48.76,5.6-30.73,13.54l21.46,44.22
			c0,0,117.11-21.93,134.48-62.28c10.6-24.62,2.93-33.23-17.22-37.21s-19.21-53-9.27-54.99s28.05-37.76,34.45-71.55
			s50.35-106.66,44.39-136.47c-5.96-29.81,57.89-184.37,57.89-184.37S707.74,423.86,689.85,437.32z"/>
		<g>
			<g>
				<path class="st1" d="M708.36,489.65c4.76-2.27,9.71-4.1,14.8-5.48c2.37-0.64,4.86-1.38,7.32-1.55c1.12-0.08,2.25-0.03,3.29,0.44
					c1.08,0.48,1.95,1.34,2.83,2.1c3.71,3.17,8.04,4.3,12.82,4.77c5.4,0.53,10.85,0.79,16.26,1.17c6.47,0.45,12.93,0.91,19.4,1.36
					c2.44,0.17,2.43-3.63,0-3.8c-11.48-0.8-22.98-1.49-34.45-2.42c-2.38-0.19-4.77-0.49-7.05-1.26c-2.2-0.75-3.77-2.11-5.53-3.55
					c-2.05-1.68-4.25-2.66-6.94-2.62c-2.49,0.04-5,0.71-7.41,1.31c-5.95,1.49-11.72,3.62-17.26,6.26
					C704.24,487.42,706.17,490.7,708.36,489.65L708.36,489.65z"/>
			</g>
		</g>
		<g>
			<g>
				<path class="st1" d="M698.01,531.01c0.65-2.34,2.87-3.52,5.13-3.92c2.76-0.49,5.38,0.36,7.81,1.62
					c3.01,1.56,5.74,3.62,8.78,5.14c2.7,1.35,5.58,2.31,8.54,2.9c11.83,2.37,23.85-0.3,35.76,0.22c6.35,0.28,12.53,1.71,17.7,5.57
					c0.83,0.62,2.11,0.13,2.6-0.68c0.58-0.96,0.14-1.99-0.68-2.6c-10.28-7.7-23.8-6.27-35.85-5.59c-6.21,0.35-12.57,0.64-18.69-0.62
					c-3-0.62-5.89-1.6-8.58-3.08c-3.21-1.77-6.16-3.99-9.55-5.44c-3.16-1.34-6.58-1.83-9.92-0.85c-3.15,0.92-5.81,3.09-6.7,6.32
					C693.69,532.36,697.36,533.37,698.01,531.01L698.01,531.01z"/>
			</g>
		</g>
		<g>
			<g>
				<path class="st1" d="M675.95,574.92c26.57-0.13,53.14,2.14,79.29,6.88c7.33,1.33,14.63,2.85,21.89,4.55
					c2.38,0.56,3.39-3.1,1.01-3.66c-26.04-6.1-52.63-9.83-79.35-11.09c-7.61-0.36-15.22-0.51-22.84-0.47
					C673.5,571.13,673.5,574.93,675.95,574.92L675.95,574.92z"/>
			</g>
		</g>
		<g>
			<g>
				<path class="st1" d="M689.9,555.14c20.68,1.24,41.28,3.64,61.68,7.23c5.78,1.02,11.55,2.13,17.3,3.34
					c2.39,0.5,3.41-3.16,1.01-3.66c-20.53-4.3-41.29-7.42-62.18-9.35c-5.93-0.55-11.87-1-17.81-1.35
					C687.46,551.19,687.47,554.99,689.9,555.14L689.9,555.14z"/>
			</g>
		</g>
		<g>
			<g>
				<path class="st1" d="M707.74,505.45c18.78,0.03,37.52,2.04,55.87,6.05c5.17,1.13,10.31,2.42,15.41,3.86
					c2.36,0.66,3.36-3,1.01-3.66c-18.32-5.16-37.18-8.37-56.17-9.54c-5.37-0.33-10.74-0.5-16.12-0.51
					C705.29,501.65,705.29,505.45,707.74,505.45L707.74,505.45z"/>
			</g>
		</g>
		<g>
			<g>
				<path class="st1" d="M717.25,456.16c16.94,3.2,34.16,4.88,51.4,4.95c4.88,0.02,9.75-0.09,14.62-0.32c2.43-0.12,2.45-3.92,0-3.8
					c-16.95,0.8-33.99,0.11-50.81-2.18c-4.75-0.65-9.48-1.42-14.19-2.31C715.87,452.04,714.85,455.7,717.25,456.16L717.25,456.16z"
					/>
			</g>
		</g>
		<g>
			<g>
				<path class="st1" d="M670.04,601.74c13.09,0.18,26.18,0.37,39.27,0.55c6.63,0.09,13.25,0.18,19.88,0.28
					c5.96,0.08,11.95,0.01,17.91,0.38c6.07,0.38,12.18,1.48,17.35,4.85c2.05,1.34,3.96-1.95,1.92-3.28
					c-9.82-6.42-22.48-5.55-33.7-5.71c-13.25-0.18-26.51-0.37-39.76-0.55c-7.62-0.11-15.24-0.21-22.86-0.32
					C667.6,597.91,667.6,601.71,670.04,601.74L670.04,601.74z"/>
			</g>
		</g>
		<g>
			<g>
				<path class="st1" d="M671.35,630.06c16.44,3.22,32.89,6.44,49.33,9.65c4.72,0.92,9.44,1.85,14.17,2.77
					c2.39,0.47,3.41-3.19,1.01-3.66c-16.44-3.22-32.89-6.44-49.33-9.65c-4.72-0.92-9.44-1.85-14.17-2.77
					C669.97,625.93,668.95,629.59,671.35,630.06L671.35,630.06z"/>
			</g>
		</g>
		<g>
			<g>
				<path class="st1" d="M659.93,662.34c10.61,1.25,21.22,2.5,31.83,3.74c1.02,0.12,1.9-0.96,1.9-1.9c0-1.13-0.88-1.78-1.9-1.9
					c-10.61-1.25-21.22-2.5-31.83-3.74c-1.02-0.12-1.9,0.96-1.9,1.9C658.03,661.56,658.9,662.22,659.93,662.34L659.93,662.34z"/>
			</g>
		</g>
	</g>
	<g id="Layer_2_00000107546038030075425750000016575465236291660433_">
		<path class="st2" d="M274.59,33.63l35.33-1.74c5.36-0.06,10.6,1.94,14.34,5.77c2.6,2.66,4.24,5.93,1.85,9.16
			c-5.46,7.36-3.31,15.86,3.36,35.94c3.16,9.54,2.86,14.18,1.66,16.43c-2.01,3.78-3.05,7.98-2.55,12.23
			c5.85,49.25,27.74,245.93,59.7,277.36c26.41,25.97,39.5,78.44,35.33,86.8c-3.71,7.46-2.2,21.88-1.83,24.91
			c0.05,0.41,0.08,0.81,0.11,1.22c1.02,16.63,21.28,344.19,20.93,355.26c-0.31,9.72,5.27,31.28,6.89,37.33
			c0.3,1.09,0.28,2.24,0.6,3.31c4.68,15.43,3.85,26.02,1.34,33.09c-2.33,6.55-7.4,11.71-13.83,14.35
			C385.82,966.36,330.96,968,330.96,968"/>
		<path class="st2" d="M274.59,33.63l-34.24,2.67c-5.33,0.62-10.27,3.26-13.5,7.54c-2.25,2.97-3.46,6.42-0.68,9.32
			c6.35,6.61,5.28,15.31,1.21,36.08c-1.93,9.86-1.04,14.43,0.43,16.51c2.47,3.49,4.04,7.53,4.07,11.81
			c0.42,49.59,3.58,247.47-24.16,282.68c-22.91,29.1-29.26,82.81-24.07,90.57c4.63,6.93,4.95,21.42,4.97,24.47
			c0.01,0.41,0.02,0.81,0.05,1.22c1.09,16.62,22.41,344.12,24.16,355.05c1.54,9.6-1.27,31.7-2.11,37.9
			c-0.16,1.11,0.01,2.26-0.18,3.36c-2.69,15.9-0.53,26.3,2.86,32.99c3.14,6.21,8.82,10.68,15.53,12.49
			c54.3,14.56,107.78,9.33,107.78,9.33"/>
		<path class="st3" d="M235.26,509.85c-6.32,15.26-9.48,34.28-8.19,54.69c3.03,47.81,29.31,85.05,58.69,83.19
			c12.78-0.81,24.03-8.89,32.43-21.69c9.95,11.64,22.13,18.23,34.91,17.42c29.38-1.86,50.73-42.13,47.7-89.94
			c-1.45-22.86-8.22-43.29-18.1-58.2c23.56-5.71,38.74-10.77,38.74-10.77l0,0l10.02,157.85C301.04,712.19,197,657.27,197,657.27
			l-10.02-157.85C201.88,504.94,218.28,508.21,235.26,509.85z"/>
		<path class="st4" d="M318.18,626.03c0,0,15.79,18.73,34.91,17.42c29.37-2.02,47.7-41.94,44.67-89.75
			c-3.03-47.81-26.68-87.9-56.05-86.04c0,0-24.01-2.04-34.32,21.8"/>
		
			<ellipse transform="matrix(0.998 -0.0633 0.0633 0.998 -34.9855 18.8811)" class="st4" cx="280.26" cy="561.16" rx="53.3" ry="86.74"/>
		
			<ellipse transform="matrix(0.998 -0.0633 0.0633 0.998 -34.3637 19.7243)" class="st5" cx="293.87" cy="551.77" rx="18.66" ry="30.37"/>
		
			<ellipse transform="matrix(0.998 -0.0633 0.0633 0.998 -33.9196 24.3804)" class="st5" cx="367.52" cy="547.1" rx="18.66" ry="30.37"/>
		<g>
			<path class="st1" d="M403.06,462.04c0,0,0.19,0.71,0.21,0.72c0.22,0.66-0.56,1.28-1.17,0.96c-3.25-1.6-6.52-3.21-9.83-4.69
				c-16.38-7.52-33.34-14.34-51.06-17.83c-7.04-1.4-14.21-2.08-21.38-1.61c-0.7,0.06-1.14-0.8-0.7-1.34
				c7.29-9.23,19.75-12.68,31.07-12.72C372.87,425.74,395.96,439.87,403.06,462.04L403.06,462.04z"/>
		</g>
		<g>
			<path class="st1" d="M279.96,440.08c0,0,0.64,0.36,0.64,0.36c0.62,0.32,0.52,1.32-0.14,1.52c-3.43,1.16-6.91,2.35-10.31,3.65
				c-20.26,7.64-40.78,16.22-57.58,30.13c-2.77,2.3-5.34,4.83-7.71,7.54c-0.45,0.53-1.39,0.24-1.45-0.45
				c-1.37-11.73,5.03-23.04,13.04-31.12C232.72,435.74,259.17,429.37,279.96,440.08L279.96,440.08z"/>
		</g>
		<path class="st6" d="M633.94,599.41c43.91-9.67,11.53-37.97,11.53-37.97s-11.09,20.68,0.9-1.95
			c9.34-17.62-11.89-37.02-26.91-17.45C604.44,561.62,633.94,599.41,633.94,599.41c-52.68,145.81-179.93,51.89-179.93,51.89"/>
		<polyline class="st6" points="221.66,955.06 238.66,947.64 250.3,963.11 266.45,951.81 282.49,967.33 297.82,953.06 
			313.84,968.55 330.02,953.23 347.29,966.76 360.22,949.69 383.3,961.25 396.92,941.37 420.3,951.49 426.03,932.51 447.14,938.42 
					"/>
		<path class="st6" d="M226.18,53.17c53.32,13.35,99.93-6.34,99.93-6.34"/>
		<path class="st6" d="M274.47,16.88l-40.44,3.08c-6.29,0.69-23.82,3.83-27.68,8.32c-2.67,3.11-4.13,6.72-0.88,9.71
			c7.44,6.83,5.01,30.41,0.01,52.07c-2.37,10.29-1.36,15.04,0.36,17.19c2.88,3.61,4.69,7.81,4.7,12.27
			c0.07,51.64,8.55,237.61-24.5,274.52c-27.3,30.5-29.01,91.64-22.96,99.68c5.4,7.17,5.65,22.26,5.65,25.44
			c0,0.42,0.01,0.85,0.04,1.28c1.13,17.3,23.4,358.11,25.36,369.48c1.72,9.98-1.78,33.02-2.84,39.48c-0.19,1.16-0.01,2.34-0.24,3.5
			c-3.32,16.59-0.85,27.39,3.08,34.33c3.65,6.43,10.32,11.04,18.22,12.86c63.95,14.68,127.13,8.77,127.13,8.77"/>
		<path class="st6" d="M273.91,16.92l40.5-2.06c6.33-0.11,24.12,0.79,28.5,4.75c3.04,2.75,4.95,6.14,2.1,9.52
			c-6.51,7.72-1.13,30.8,6.57,51.66c3.65,9.91,3.25,14.75,1.82,17.1c-2.4,3.95-3.67,8.34-3.11,12.76
			c6.46,51.23,21.56,236.78,59.01,269.22c30.94,26.81,40.36,87.24,35.38,95.98c-4.45,7.79-2.79,22.8-2.39,25.95
			c0.06,0.42,0.09,0.84,0.12,1.27c1.07,17.3,22.07,358.2,21.56,369.72c-0.44,10.12,5.94,32.53,7.81,38.81
			c0.34,1.12,0.3,2.32,0.68,3.44c5.39,16.04,4.31,27.06,1.29,34.45c-2.8,6.84-8.84,12.26-16.45,15.06
			c-61.58,22.65-125,24.77-125,24.77"/>
	</g>
</g>
</svg>
