<?xml version="1.0" encoding="utf-8"?>
<!-- Generator: Adobe Illustrator 28.0.0, SVG Export Plug-In . SVG Version: 6.00 Build 0)  -->
<svg version="1.1" id="Layer_1" xmlns="http://www.w3.org/2000/svg" xmlns:xlink="http://www.w3.org/1999/xlink" x="0px" y="0px"
	 viewBox="0 0 1000 1000" style="enable-background:new 0 0 1000 1000;" xml:space="preserve">
<style type="text/css">
	.st0{fill:#FFF;}
	.st1{fill:none;stroke:#FFF;stroke-width:133.0258;stroke-miterlimit:10;stroke-dasharray:125.2008,140.8509;}
</style>
<g>
	<g>
		<path class="st0" d="M499.77,226.26c73.12,0,141.86,28.47,193.56,80.18S773.5,426.88,773.5,500s-28.47,141.86-80.17,193.56
			s-120.44,80.17-193.56,80.17s-141.86-28.47-193.56-80.17S226.03,573.12,226.03,500s28.47-141.86,80.18-193.56
			S426.65,226.26,499.77,226.26 M499.77,93.24C275.12,93.24,93.01,275.35,93.01,500s182.11,406.76,406.76,406.76
			S906.53,724.65,906.53,500S724.41,93.24,499.77,93.24L499.77,93.24z"/>
	</g>
	<circle class="st1" cx="499.77" cy="500" r="427.27"/>
</g>
</svg>
